<?xml version="1.0"?>
<svg xmlns="http://www.w3.org/2000/svg" xmlns:xlink="http://www.w3.org/1999/xlink" xmlns:svgjs="http://svgjs.com/svgjs" version="1.1" width="512" height="512" x="0" y="0" viewBox="0 0 512 512" style="enable-background:new 0 0 512 512" xml:space="preserve" class=""><g><g xmlns="http://www.w3.org/2000/svg"><g><g><path d="m299.774 512c-68.38 0-132.667-26.629-181.02-74.98-48.351-48.353-74.98-112.64-74.98-181.02s26.628-132.667 74.98-181.02c48.353-48.351 112.64-74.98 181.02-74.98 54.184 0 105.986 16.738 149.806 48.405 20.143 14.557 24.672 42.688 10.115 62.831-14.556 20.143-42.686 24.672-62.831 10.115-28.38-20.51-61.954-31.351-97.09-31.351-91.533 0-166 74.467-166 166s74.467 166 166 166c27.716 0 54.458-6.745 78.448-19.662v-83.828h-77.222c-24.853 0-45-20.147-45-45s20.147-45 45-45h122.223c24.853 0 45 20.147 45 45v153.611c0 14.445-6.935 28.012-18.642 36.473-43.82 31.668-95.623 48.406-149.807 48.406z" fill="#31557f" data-original="#ff7cec" style="" class=""/></g></g><g fill="#b473f1"><path d="m256 3.709v92.16c13.952-3.818 28.627-5.869 43.774-5.869 35.136 0 68.709 10.841 97.09 31.352 20.145 14.557 48.274 10.028 62.831-10.115 14.557-20.144 10.028-48.274-10.115-62.831-43.819-31.668-95.622-48.406-149.806-48.406-14.824 0-29.455 1.256-43.774 3.709z" fill="#0f3057" data-original="#b473f1" style="" class=""/><path d="m468.223 273.51c0-24.853-20.147-45-45-45h-122.223c-24.853 0-45 20.147-45 45s20.147 45 45 45h77.223v83.828c-23.99 12.917-50.733 19.662-78.449 19.662-15.147 0-29.822-2.051-43.774-5.869v92.16c14.319 2.453 28.95 3.709 43.774 3.709 54.184 0 105.986-16.738 149.806-48.405 11.708-8.461 18.642-22.028 18.642-36.473v-153.612z" fill="#0f3057" data-original="#b473f1" style="" class=""/></g></g></g></svg>
